<?xml version="1.0" encoding="utf-8"?>
<!-- Svg Vector Icons : http://www.onlinewebfonts.com/icon -->
<!DOCTYPE svg PUBLIC "-//W3C//DTD SVG 1.1//EN" "http://www.w3.org/Graphics/SVG/1.1/DTD/svg11.dtd">
<svg version="1.1" xmlns="http://www.w3.org/2000/svg" xmlns:xlink="http://www.w3.org/1999/xlink" x="0px" y="0px" viewBox="0 0 256 256" enable-background="new 0 0 256 256" xml:space="preserve">
<metadata> Svg Vector Icons : http://www.onlinewebfonts.com/icon </metadata>
<g><g><path fill="#000000" d="M128,10C62.9,10,10,63,10,128c0,65,52.9,118,118,118c65,0,118-53,118-118C246,63,193,10,128,10L128,10z M128,26.9c55.8,0,101.1,45.3,101.1,101.1c0,22.5-7.5,43.3-19.9,60.1c-12.3-19.3-31-34-53.3-40.6c13.1-8.9,21.6-23.9,21.6-40.9c0-27.3-22.2-49.5-49.5-49.5c-27.3,0-49.5,22.2-49.5,49.5c0,17.1,8.7,32.2,22,41.1c-22.3,6.9-41,21.7-53.1,41.1c-12.8-17-20.5-38-20.5-60.9C26.9,72.2,72.2,26.9,128,26.9L128,26.9z M95.3,106.6C95.3,88.6,110,74,128,74c18,0,32.7,14.6,32.7,32.7c0,18-14.7,32.7-32.7,32.7C110,139.3,95.3,124.6,95.3,106.6L95.3,106.6z M59.3,202.1c13.3-24.8,39.3-41.7,69.3-41.7c29.8,0,55.5,16.6,69,41c-18.1,17.2-42.5,27.8-69.5,27.8C101.4,229.1,77.3,218.8,59.3,202.1L59.3,202.1z"/></g></g>
</svg>